<svg xmlns="http://www.w3.org/2000/svg" version="1.1" xmlns:xlink="http://www.w3.org/1999/xlink" width="1000" height="1000"><g clip-path="url(#SvgjsClipPath1001)"><rect width="1000" height="1000" fill="#d18787"></rect><g transform="matrix(3.5,0,0,3.5,150,150)"><svg xmlns="http://www.w3.org/2000/svg" version="1.1" xmlns:xlink="http://www.w3.org/1999/xlink" width="200" height="200"><svg xmlns="http://www.w3.org/2000/svg" version="1.1" xmlns:xlink="http://www.w3.org/1999/xlink" viewBox="0 0 200 200"><rect width="200" height="200" fill="url('#gradient')"></rect><defs><linearGradient id="gradient" gradientTransform="rotate(155 0.5 0.5)"><stop offset="0%" stop-color="#1f9958"></stop><stop offset="100%" stop-color="#3b6777"></stop></linearGradient><clipPath id="SvgjsClipPath1001"><rect width="1000" height="1000" x="0" y="0" rx="350" ry="350"></rect></clipPath></defs><g><g fill="#531916" transform="matrix(1.2003672057058117,0,0,1.2003672057058117,16.24887108295182,109.0086386187098)" stroke="#dc1133" stroke-width="0.35"><path d="M8.41-3.78L8.41-3.78Q8.41-4.53 7.88-4.95Q7.34-5.37 6.01-5.82Q4.67-6.27 3.82-6.69L3.82-6.69Q1.05-8.05 1.05-10.42L1.05-10.42Q1.05-11.60 1.74-12.50Q2.43-13.41 3.69-13.91Q4.95-14.41 6.52-14.41L6.52-14.41Q8.06-14.41 9.27-13.87Q10.49-13.32 11.16-12.31Q11.84-11.30 11.84-10L11.84-10L8.42-10Q8.42-10.87 7.89-11.35Q7.35-11.83 6.45-11.83L6.45-11.83Q5.53-11.83 5.00-11.42Q4.46-11.02 4.46-10.39L4.46-10.39Q4.46-9.84 5.05-9.40Q5.63-8.96 7.11-8.48Q8.58-8.01 9.53-7.46L9.53-7.46Q11.84-6.13 11.84-3.80L11.84-3.80Q11.84-1.93 10.43-0.87Q9.02 0.20 6.57 0.20L6.57 0.20Q4.84 0.20 3.44-0.42Q2.04-1.04 1.33-2.12Q0.63-3.20 0.63-4.61L0.63-4.61L4.06-4.61Q4.06-3.47 4.65-2.92Q5.24-2.38 6.57-2.38L6.57-2.38Q7.42-2.38 7.92-2.75Q8.41-3.12 8.41-3.78ZM21.46 0L18.43-5.29L17.02-3.75L17.02 0L13.59 0L13.59-14.22L17.02-14.22L17.02-7.95L18.21-9.76L21.28-14.22L25.52-14.22L20.71-7.93L25.52 0L21.46 0ZM38.27-14.22L38.27 0L34.86 0L34.86-5.94L29.81-5.94L29.81 0L26.39 0L26.39-14.22L29.81-14.22L29.81-8.57L34.86-8.57L34.86-14.22L38.27-14.22ZM46.05-4.82L43.87-4.82L43.87 0L40.44 0L40.44-14.22L46.11-14.22Q47.74-14.22 49.00-13.62Q50.25-13.02 50.94-11.91Q51.63-10.80 51.63-9.39L51.63-9.39Q51.63-7.31 50.14-6.07Q48.65-4.82 46.05-4.82L46.05-4.82ZM43.87-11.57L43.87-7.47L46.11-7.47Q47.11-7.47 47.63-7.97Q48.15-8.47 48.15-9.38L48.15-9.38Q48.15-10.37 47.62-10.97Q47.08-11.56 46.15-11.57L46.15-11.57L43.87-11.57ZM51.40-3.19L51.40-3.19Q52.18-3.19 52.70-2.73Q53.21-2.27 53.21-1.54Q53.21-0.82 52.70-0.36Q52.18 0.11 51.40 0.11L51.40 0.11Q50.61 0.11 50.09-0.36Q49.58-0.83 49.58-1.54Q49.58-2.26 50.09-2.72Q50.61-3.19 51.40-3.19ZM61.17-4.82L58.98-4.82L58.98 0L55.56 0L55.56-14.22L61.23-14.22Q62.86-14.22 64.12-13.62Q65.37-13.02 66.06-11.91Q66.75-10.80 66.75-9.39L66.75-9.39Q66.75-7.31 65.26-6.07Q63.77-4.82 61.17-4.82L61.17-4.82ZM58.98-11.57L58.98-7.47L61.23-7.47Q62.23-7.47 62.75-7.97Q63.27-8.47 63.27-9.38L63.27-9.38Q63.27-10.37 62.73-10.97Q62.20-11.56 61.27-11.57L61.27-11.57L58.98-11.57ZM67.89-4.82L67.88-5.38Q67.88-6.96 68.50-8.20Q69.11-9.43 70.26-10.10Q71.42-10.76 72.97-10.76L72.97-10.76Q75.34-10.76 76.71-9.29Q78.08-7.82 78.08-5.29L78.08-5.29L78.08-5.18Q78.08-2.71 76.70-1.25Q75.33 0.20 72.99 0.20L72.99 0.20Q70.73 0.20 69.37-1.16Q68.00-2.51 67.89-4.82L67.89-4.82ZM71.18-5.77L71.17-5.18Q71.17-3.71 71.63-3.03Q72.09-2.34 72.99-2.34L72.99-2.34Q74.75-2.34 74.79-5.05L74.79-5.05L74.79-5.38Q74.79-8.22 72.97-8.22L72.97-8.22Q71.32-8.22 71.18-5.77L71.18-5.77ZM85.98-10.64L85.92-7.59L84.83-7.67Q83.28-7.67 82.84-6.69L82.84-6.69L82.84 0L79.55 0L79.55-10.57L82.64-10.57L82.74-9.21Q83.57-10.76 85.06-10.76L85.06-10.76Q85.59-10.76 85.98-10.64L85.98-10.64ZM88.13-13.19L91.43-13.19L91.43-10.57L93.16-10.57L93.16-8.28L91.43-8.28L91.43-3.45Q91.43-2.85 91.64-2.62Q91.86-2.38 92.49-2.38L92.49-2.38Q92.98-2.38 93.31-2.44L93.31-2.44L93.31-0.09Q92.42 0.20 91.46 0.20L91.46 0.20Q89.76 0.20 88.95-0.61Q88.13-1.41 88.13-3.04L88.13-3.04L88.13-8.28L86.79-8.28L86.79-10.57L88.13-10.57L88.13-13.19ZM93.76-4.82L93.75-5.38Q93.75-6.96 94.37-8.20Q94.98-9.43 96.13-10.10Q97.29-10.76 98.84-10.76L98.84-10.76Q101.21-10.76 102.58-9.29Q103.95-7.82 103.95-5.29L103.95-5.29L103.95-5.18Q103.95-2.71 102.57-1.25Q101.20 0.20 98.86 0.20L98.86 0.20Q96.60 0.20 95.23-1.16Q93.87-2.51 93.76-4.82L93.76-4.82ZM97.05-5.77L97.04-5.18Q97.04-3.71 97.50-3.03Q97.96-2.34 98.86-2.34L98.86-2.34Q100.62-2.34 100.65-5.05L100.65-5.05L100.65-5.38Q100.65-8.22 98.84-8.22L98.84-8.22Q97.19-8.22 97.05-5.77L97.05-5.77ZM109.42 0L106.12 0L106.12-8.28L104.59-8.28L104.59-10.57L106.12-10.57L106.12-11.41Q106.12-13.21 107.19-14.21Q108.25-15.21 110.18-15.21L110.18-15.21Q110.88-15.21 111.72-15L111.72-15L111.73-12.58Q111.43-12.67 110.92-12.67L110.92-12.67Q109.42-12.67 109.42-11.38L109.42-11.38L109.42-10.57L111.48-10.57L111.48-8.28L109.42-8.28L109.42 0ZM116.11-10.57L116.11 0L112.81 0L112.81-10.57L116.11-10.57ZM112.62-13.29L112.62-13.29Q112.62-13.99 113.13-14.44Q113.63-14.89 114.44-14.89Q115.25-14.89 115.76-14.44Q116.27-13.99 116.27-13.29Q116.27-12.59 115.76-12.14Q115.25-11.69 114.44-11.69Q113.63-11.69 113.13-12.14Q112.62-12.59 112.62-13.29ZM121.61-15L121.61 0L118.31 0L118.31-15L121.61-15ZM127.11-10.57L127.11 0L123.81 0L123.81-10.57L127.11-10.57ZM123.61-13.29L123.61-13.29Q123.61-13.99 124.12-14.44Q124.63-14.89 125.44-14.89Q126.25-14.89 126.76-14.44Q127.27-13.99 127.27-13.29Q127.27-12.59 126.76-12.14Q126.25-11.69 125.44-11.69Q124.63-11.69 124.12-12.14Q123.61-12.59 123.61-13.29ZM128.73-4.82L128.72-5.38Q128.72-6.96 129.34-8.20Q129.95-9.43 131.10-10.10Q132.26-10.76 133.81-10.76L133.81-10.76Q136.18-10.76 137.55-9.29Q138.92-7.82 138.92-5.29L138.92-5.29L138.92-5.18Q138.92-2.71 137.54-1.25Q136.17 0.20 133.83 0.20L133.83 0.20Q131.57 0.20 130.21-1.16Q128.84-2.51 128.73-4.82L128.73-4.82ZM132.02-5.77L132.01-5.18Q132.01-3.71 132.47-3.03Q132.93-2.34 133.83-2.34L133.83-2.34Q135.59-2.34 135.63-5.05L135.63-5.05L135.63-5.38Q135.63-8.22 133.81-8.22L133.81-8.22Q132.16-8.22 132.02-5.77L132.02-5.77Z"></path></g></g></svg></svg></g></g></svg>